<svg width="23" height="24" viewBox="0 0 23 24" fill="none" xmlns="http://www.w3.org/2000/svg">
<path d="M21.9329 9.56885L12.2362 0.647903C11.921 0.357889 11.5059 0.200938 11.0776 0.209856C10.6494 0.218773 10.2412 0.39287 9.93828 0.695754L1.02017 9.61392L0.5625 10.0715V23.2188H9.15625V15.0156H13.8438V23.2188H22.4375V10.0331L21.9329 9.56885ZM11.1112 1.77202C11.125 1.77202 11.1165 1.775 11.1106 1.78081C11.1045 1.775 11.0975 1.77202 11.1112 1.77202ZM20.875 21.6563H15.4062V15.0156C15.4062 14.6012 15.2416 14.2038 14.9486 13.9108C14.6556 13.6177 14.2582 13.4531 13.8438 13.4531H9.15625C8.74185 13.4531 8.34442 13.6177 8.0514 13.9108C7.75837 14.2038 7.59375 14.6012 7.59375 15.0156V21.6563H2.125V10.7188L11.1112 1.80059C11.1119 1.8 11.1119 1.79947 11.1124 1.79888L20.875 10.7188V21.6563Z" fill="#222222"/>
</svg>
